<svg width="20" height="12" viewBox="0 0 20 12" fill="none" xmlns="http://www.w3.org/2000/svg">
<path fill-rule="evenodd" clip-rule="evenodd" d="M0.468997 0.968997C0.538667 0.899147 0.621427 0.843737 0.712547 0.805927C0.803667 0.768117 0.901347 0.748657 0.999997 0.748657C1.09865 0.748657 1.19633 0.768117 1.28745 0.805927C1.37857 0.843737 1.46133 0.899147 1.531 0.968997L10 9.4395L18.469 0.968997C18.5387 0.899267 18.6215 0.843947 18.7126 0.806207C18.8037 0.768467 18.9014 0.749047 19 0.749047C19.0986 0.749047 19.1963 0.768467 19.2874 0.806207C19.3785 0.843947 19.4613 0.899267 19.531 0.968997C19.6007 1.03873 19.656 1.12151 19.6938 1.21262C19.7315 1.30373 19.7509 1.40138 19.7509 1.5C19.7509 1.59861 19.7315 1.69626 19.6938 1.78737C19.656 1.87848 19.6007 1.96127 19.531 2.031L10.531 11.031C10.4613 11.1008 10.3786 11.1563 10.2874 11.1941C10.1963 11.2319 10.0986 11.2513 10 11.2513C9.9013 11.2513 9.8037 11.2319 9.7125 11.1941C9.6214 11.1563 9.5387 11.1008 9.469 11.031L0.468997 2.031C0.399147 1.96133 0.343737 1.87857 0.305927 1.78745C0.268117 1.69633 0.248657 1.59865 0.248657 1.5C0.248657 1.40135 0.268117 1.30366 0.305927 1.21255C0.343737 1.12143 0.399147 1.03867 0.468997 0.968997Z" fill="#ADB5BD"/>
</svg>
